<?xml version="1.0" encoding="UTF-8"?>
<svg width="48px" height="48px" viewBox="0 0 48 48" version="1.1" xmlns="http://www.w3.org/2000/svg" xmlns:xlink="http://www.w3.org/1999/xlink">
    <title>ic/header/question</title>
    <defs>
        <path d="M24,3 C35.5979797,3 45,12.4020203 45,24 C45,35.5979797 35.5979797,45 24,45 C12.4020203,45 3,35.5979797 3,24 C3,12.4020203 12.4020203,3 24,3 Z M30.2863673,31.499711 L17.7136327,31.499711 C18.9546856,37.7654741 21.6071684,42 24,42 C26.3928316,42 29.0453144,37.7654741 30.2863673,31.499711 Z M14.6566068,31.499968 L7.63187384,31.4994491 C9.67342664,35.9480068 13.4751757,39.4209177 18.1453886,41.0264494 C16.5808524,38.6497199 15.3571654,35.346485 14.6566068,31.499968 Z M40.3681262,31.4994491 L33.3433932,31.499968 C32.6428346,35.346485 31.4191476,38.6497199 29.8551027,41.0258548 C34.5248243,39.4209177 38.3265734,35.9480068 40.3681262,31.4994491 Z M14.2302313,19.4990087 L6.56717133,19.4996401 C6.19692136,20.9380381 6,22.4460223 6,24 C6,25.5536167 6.19682989,27.0612613 6.56691334,28.4993575 L14.2301273,28.4999908 C14.079411,27.0502917 14,25.5446206 14,24 L14,24 L14.0018534,23.5915831 C14.0145895,22.1894501 14.0927643,20.8209561 14.2302313,19.4990087 Z M30.7496049,19.4995046 L17.2503951,19.4995046 C17.088595,20.9319451 17,22.4388739 17,24 C17,25.5607611 17.0885535,27.0673503 17.2502816,28.4994906 L30.7497184,28.4994906 C30.9114465,27.0673503 31,25.5607611 31,24 C31,22.4388739 30.911405,20.9319451 30.7496049,19.4995046 Z M41.4328287,19.4996401 L33.7697687,19.4990087 C33.9205524,20.9490156 34,22.455024 34,24 C34,25.5446206 33.920589,27.0502917 33.7698727,28.4999908 L41.4330867,28.4993575 C41.8031701,27.0612613 42,25.5536167 42,24 C42,22.4460223 41.8030786,20.9380381 41.4328287,19.4996401 Z M18.1448973,6.97414523 L18.0137323,7.01938688 C13.4041063,8.64442947 9.65477726,12.0933463 7.63233387,16.4995486 L14.6567888,16.4990325 C15.3573774,12.6529428 16.5809879,9.35007432 18.1448973,6.97414523 Z M24,6 L23.8639346,6.00453125 C21.5074461,6.16093024 18.9314889,10.3526007 17.7138317,16.4992845 L30.2861683,16.4992845 C29.0450309,10.2340733 26.3927038,6 24,6 L24,6 Z M29.8546114,6.9735506 L29.9058701,7.05178183 C31.4454938,9.42178588 32.6502214,12.6946586 33.3432112,16.4990325 L40.3676661,16.4995486 C38.3260023,12.0514716 34.5244735,8.57896175 29.8546114,6.9735506 Z" id="path-1"></path>
    </defs>
    <g id="ic/header/question" stroke="none" stroke-width="1" fill="none" fill-rule="evenodd">
        <g id="ic/grids/24" opacity="0" stroke="#00C8FF" stroke-width="0.5">
            <g id="ic/Grids/40-48/InLight" opacity="0.600000024">
                <rect id="Border" opacity="0.400000006" x="0.25" y="0.25" width="47.5" height="47.5"></rect>
                <g id="Grid" opacity="0.5">
                    <line x1="47.749775" y1="0.25025" x2="0.250025" y2="47.75" id="Stroke-161"></line>
                    <line x1="0.25" y1="0.25025" x2="47.74975" y2="47.75" id="Stroke-163"></line>
                    <path d="M36.4361148,4.25 C37.2568342,4.25 37.5579605,4.32661723 37.858946,4.487586 C38.1406604,4.63824851 38.3617515,4.85933962 38.512414,5.14105401 C38.6733828,5.44203945 38.75,5.74316577 38.75,6.5638852 L38.75,6.5638852 L38.75,41.4361148 C38.75,42.2568342 38.6733828,42.5579605 38.512414,42.858946 C38.3617515,43.1406604 38.1406604,43.3617515 37.858946,43.512414 C37.5579605,43.6733828 37.2568342,43.75 36.4361148,43.75 L36.4361148,43.75 L11.5638852,43.75 C10.7431658,43.75 10.4420395,43.6733828 10.141054,43.512414 C9.85933962,43.3617515 9.63824851,43.1406604 9.487586,42.858946 C9.32661723,42.5579605 9.25,42.2568342 9.25,41.4361148 L9.25,41.4361148 L9.25,6.5638852 C9.25,5.74316577 9.32661723,5.44203945 9.487586,5.14105401 C9.63824851,4.85933962 9.85933962,4.63824851 10.141054,4.487586 C10.4420395,4.32661723 10.7431658,4.25 11.5638852,4.25 L11.5638852,4.25 Z" id="Rectangle" fill-opacity="0.1" fill="#00C8FF"></path>
                    <path d="M41.4361148,9.25 C42.2568342,9.25 42.5579605,9.32661723 42.858946,9.487586 C43.1406604,9.63824851 43.3617515,9.85933962 43.512414,10.141054 C43.6733828,10.4420395 43.75,10.7431658 43.75,11.5638852 L43.75,11.5638852 L43.75,36.4361148 C43.75,37.2568342 43.6733828,37.5579605 43.512414,37.858946 C43.3617515,38.1406604 43.1406604,38.3617515 42.858946,38.512414 C42.5579605,38.6733828 42.2568342,38.75 41.4361148,38.75 L41.4361148,38.75 L6.5638852,38.75 C5.74316577,38.75 5.44203945,38.6733828 5.14105401,38.512414 C4.85933962,38.3617515 4.63824851,38.1406604 4.487586,37.858946 C4.32661723,37.5579605 4.25,37.2568342 4.25,36.4361148 L4.25,36.4361148 L4.25,11.5638852 C4.25,10.7431658 4.32661723,10.4420395 4.487586,10.141054 C4.63824851,9.85933962 4.85933962,9.63824851 5.14105401,9.487586 C5.44203945,9.32661723 5.74316577,9.25 6.5638852,9.25 L6.5638852,9.25 Z" id="Rectangle" fill-opacity="0.1" fill="#00C8FF"></path>
                    <path d="M39.4361148,6.25 C40.2568342,6.25 40.5579605,6.32661723 40.858946,6.487586 C41.1406604,6.63824851 41.3617515,6.85933962 41.512414,7.14105401 C41.6733828,7.44203945 41.75,7.74316577 41.75,8.5638852 L41.75,8.5638852 L41.75,39.4361148 C41.75,40.2568342 41.6733828,40.5579605 41.512414,40.858946 C41.3617515,41.1406604 41.1406604,41.3617515 40.858946,41.512414 C40.5579605,41.6733828 40.2568342,41.75 39.4361148,41.75 L39.4361148,41.75 L8.5638852,41.75 C7.74316577,41.75 7.44203945,41.6733828 7.14105401,41.512414 C6.85933962,41.3617515 6.63824851,41.1406604 6.487586,40.858946 C6.32661723,40.5579605 6.25,40.2568342 6.25,39.4361148 L6.25,39.4361148 L6.25,8.5638852 C6.25,7.74316577 6.32661723,7.44203945 6.487586,7.14105401 C6.63824851,6.85933962 6.85933962,6.63824851 7.14105401,6.487586 C7.44203945,6.32661723 7.74316577,6.25 8.5638852,6.25 L8.5638852,6.25 L39.4361148,6.25 Z" id="Rectangle" fill-opacity="0.1" fill="#00C8FF"></path>
                    <path d="M23.9999,4.25025 C29.4570845,4.25025 34.3945571,6.45907212 37.9677122,10.0322718 C41.5408502,13.6054545 43.74965,18.5429682 43.74965,24.00025 C43.74965,29.4574393 41.5408243,34.3949776 37.9676508,37.9681958 C34.3945007,41.5413905 29.4570535,43.75025 23.9999,43.75025 C18.5423582,43.75025 13.6049328,41.5414794 10.0318597,37.9684063 C6.45862464,34.3951713 4.2499,29.4575457 4.2499,24.00025 C4.2499,18.5428618 6.45859879,13.6052608 10.0317983,10.0320613 C13.6048764,6.45898326 18.5423273,4.25025 23.9999,4.25025 Z" id="Stroke-167" fill-opacity="0.1" fill="#00C8FF"></path>
                </g>
            </g>
        </g>
        <mask id="mask-2" fill="white">
            <use xlink:href="#path-1"></use>
        </mask>
        <g id="Combined-Shape" fill-rule="nonzero"></g>
        <g id="编组" mask="url(#mask-2)" fill="#ffffff" fill-opacity="0.85">
            <g id="color">
                <rect id="black/8(black-main)" x="0" y="0" width="48" height="48"></rect>
            </g>
        </g>
    </g>
</svg>